<svg id="e2VgHB6kxKt1" xmlns="http://www.w3.org/2000/svg" xmlns:xlink="http://www.w3.org/1999/xlink" viewBox="0 0 577.574 577.575" shape-rendering="geometricPrecision" text-rendering="geometricPrecision"><g transform="matrix(.698555-.715557 0.715557 0.698555-73.536038 332.38555)"><path d="M289.425,360.825c112.2,0,204-91.8,204-204v0c0-14.025-11.477-25.5-25.5-25.5h-357c-14.025,0-25.5,11.475-25.5,25.5v0c0,112.2,90.525,204,204,204ZM367.199,158.1c12.75-7.65,49.727,28.05,57.375,40.8c7.65,12.75,3.826,29.325-8.924,36.975s-29.326,3.825-36.975-8.925c-7.65-11.475-24.226-61.2-11.476-68.85Zm-77.774,30.6c15.299,0,26.774,51,26.774,65.025s-11.474,26.775-26.774,26.775-26.775-11.475-26.775-26.775s11.475-65.025,26.775-65.025ZM153,198.9c7.65-12.75,44.625-49.725,57.375-40.8c12.75,7.65-3.825,57.375-11.475,70.125s-24.225,16.575-36.975,8.925c-14.025-8.925-17.85-25.5-8.925-38.25Z" fill="#ff1493"/><path d="M552.074,131.325c-14.023,0-25.5,11.475-25.5,25.5c0,131.325-107.1,237.15-237.149,237.15C159.375,393.975,51,288.15,51,156.825c0-14.025-11.475-25.5-25.5-25.5s-25.5,11.475-25.5,25.5C0,316.2,130.05,446.25,289.425,446.25s288.149-130.05,288.149-289.425c0-14.025-11.474-25.5-25.5-25.5Z" fill="#2ccb69"/></g></svg>